# xmcd
#
# Track frame offsets: 
#        150
#        10777
#        20487
#        34035
#        46007
#        55422
#        66817
#        74917
#        87075
#        99750
#
# Disc length: 1529 seconds
#
# Revision: 0
# Processed by: cddbd v1.4PL0 Copyright (c) Steve Scherf et al.
# Submitted via: ExactAudioCopy v0.95a3
#
DISCID=7905f70a
DTITLE=Statler Brothers - Harmony
DYEAR=2001
DGENRE=Country
TTITLE0=Flowers On The Wall
TTITLE1=King Of The Road
TTITLE2=Green, Green Grass Of Home
TTITLE3=There Goes My Everything
TTITLE4=That'll Be The Day
TTITLE5=Daddy Sang Bass
TTITLE6=This Ole House
TTITLE7=Oh, Happy Day
TTITLE8=Is This What You'd Have Me Do
TTITLE9=Shenandoah
EXTD=
EXTT0=
EXTT1=
EXTT2=
EXTT3=
EXTT4=
EXTT5=
EXTT6=
EXTT7=
EXTT8=
EXTT9=
PLAYORDER=
